<svg xmlns="http://www.w3.org/2000/svg" viewBox="0 0 72 72" fill="none" preserveAspectRatio="xMidYMid meet" shape-rendering="geometricPrecision">
  <defs>
    <linearGradient id="ocean" x1="18" y1="14" x2="54" y2="58" gradientUnits="userSpaceOnUse">
      <stop offset="0%" stop-color="#67E8F9"/>
      <stop offset="48%" stop-color="#0EA5E9"/>
      <stop offset="100%" stop-color="#1D4ED8"/>
    </linearGradient>
    <linearGradient id="land" x1="24" y1="22" x2="48" y2="44" gradientUnits="userSpaceOnUse">
      <stop offset="0%" stop-color="#BBF7D0"/>
      <stop offset="100%" stop-color="#22C55E"/>
    </linearGradient>
  </defs>

  <circle cx="36" cy="36" r="21" fill="url(#ocean)"/>
  <path d="M15 36H57" stroke="#E0F2FE" stroke-opacity=".78" stroke-width="1.6" stroke-linecap="round"/>
  <path d="M18.4 27.4C22.4 30.1 28.9 31.8 36 31.8C43.1 31.8 49.6 30.1 53.6 27.4" stroke="#E0F2FE" stroke-opacity=".68" stroke-width="1.4" stroke-linecap="round"/>
  <path d="M18.4 44.6C22.4 41.9 28.9 40.2 36 40.2C43.1 40.2 49.6 41.9 53.6 44.6" stroke="#E0F2FE" stroke-opacity=".68" stroke-width="1.4" stroke-linecap="round"/>
  <path d="M36 15C30.3 20 27.3 27.4 27.3 36C27.3 44.6 30.3 52 36 57" stroke="#E0F2FE" stroke-opacity=".72" stroke-width="1.4" stroke-linecap="round"/>
  <path d="M36 15C41.7 20 44.7 27.4 44.7 36C44.7 44.6 41.7 52 36 57" stroke="#E0F2FE" stroke-opacity=".72" stroke-width="1.4" stroke-linecap="round"/>
  <path d="M27.6 24.5C30 22.4 33.8 22.5 36 24.6C37.5 26 39.8 26.3 41.6 25.3C43.5 24.3 45.9 24.9 47 26.7C48.2 28.7 47.8 31.3 46 32.9C44.6 34.2 44.2 36.3 45.2 38.1C46.4 40.1 45.9 42.8 44.1 44.2C42.4 45.6 39.9 45.7 38.1 44.5C36.3 43.4 34 43.5 32.4 44.9C30.3 46.6 27.2 46.2 25.5 44.1C24.2 42.4 24.1 40 25.3 38.1C26.4 36.4 26.1 34.1 24.6 32.7C22.4 30.7 22.7 26.8 27.6 24.5Z" fill="url(#land)" fill-opacity=".95"/>
</svg>
