<svg xmlns="http://www.w3.org/2000/svg" viewBox="0 0 64 64">
  <rect width="64" height="64" rx="18" fill="#ffffff"/>
  <path d="M12 16c6.8-3 13.2-4.6 20-4.6 7 0 13.6 1.6 20 4.6-2.6 1.6-5.4 2.5-8.2 3.1-3.2-1.1-7.2-1.8-11.8-1.8s-8.6.7-11.8 1.8c-2.8-.6-5.6-1.5-8.2-3.1Z" fill="#e82127"/>
  <path d="M28.8 22.5c1.1-.2 2.1-.2 3.2-.2 1.2 0 2.2 0 3.2.2-.8 4.2-1.4 10.6-1.6 19.3-.1 4.7-.1 7.8-.1 9.4h-3c0-1.6 0-4.7-.1-9.4-.2-8.7-.8-15.1-1.6-19.3Z" fill="#e82127"/>
  <path d="M21.7 24.3c3.1-.9 6.7-1.4 10.3-1.4s7.2.5 10.3 1.4c-2 1.1-4.3 1.8-6.5 2.2-.5 2.8-.8 7.1-1 12.8h-5.6c-.2-5.7-.5-10-1-12.8-2.2-.4-4.5-1.1-6.5-2.2Z" fill="#e82127"/>
</svg>
