<svg xmlns="http://www.w3.org/2000/svg" viewBox="0 0 560 120" fill="none" preserveAspectRatio="xMidYMid meet" shape-rendering="geometricPrecision">
  <g fill="#E82127">
    <path d="M20 20c16-7 33-10.5 50-10.5S104 13 120 20c-5.4 8.1-13.1 11.7-22.5 13.2H78.8V95H61.2V33.2H42.5C33.1 31.7 25.4 28.1 20 20Z"/>
    <path d="M150 20c14.8-6.9 30.3-10.3 46.8-10.3 16.3 0 31.8 3.4 46.8 10.3-4.9 7.8-11.8 11.4-20.5 13h-52.6c-8.8-1.6-15.7-5.2-20.5-13Zm0 30h93.6c-4.5 6.9-11.4 10.1-20.1 11.4h-53.4C161.4 60.1 154.5 56.9 150 50Zm0 29.2h93.6c-4.9 7.8-11.8 11.4-20.5 13h-52.6c-8.8-1.6-15.7-5.2-20.5-13Z"/>
    <path d="M282 20h92c-5.2 8.1-12.6 11.7-22 13.2h-51.8V48h64.6v24.7h-64.6V92H282c3.6-8.1 10.8-12.4 21.2-13h43.8V61H282V20Z"/>
    <path d="M412 20h17.8v58.8H484V95h-72V20Z"/>
    <path d="M494 20c14.9-6.9 30.6-10.3 47.2-10.3 16.4 0 32.1 3.4 47 10.3-4.8 7.8-11.7 11.4-20.4 13h-53.2c-8.9-1.6-15.8-5.2-20.6-13Zm4.8 30h84.8V95h-17.6V65.9h-49.6V95h-17.6V50Z" transform="translate(-27 0)"/>
  </g>
</svg>
